<svg width="114" height="40" viewBox="0 0 114 40" fill="none" xmlns="http://www.w3.org/2000/svg">
<path d="M0.934366 15V0.503171H7.19179C8.26772 0.503171 9.20917 0.715527 10.0161 1.14024C10.8231 1.56495 11.4507 2.16191 11.899 2.93111C12.3473 3.70031 12.5715 4.59928 12.5715 5.62803C12.5715 6.66621 12.3402 7.56518 11.8778 8.32495C11.42 9.08471 10.7759 9.66987 9.94533 10.0804C9.11951 10.491 8.15447 10.6963 7.05022 10.6963H3.31275V7.63833H6.25742C6.71988 7.63833 7.11392 7.55811 7.43953 7.39766C7.76987 7.23249 8.02233 6.9989 8.19694 6.69688C8.37626 6.39487 8.46592 6.03858 8.46592 5.62803C8.46592 5.21275 8.37626 4.85883 8.19694 4.56625C8.02233 4.26895 7.76987 4.04244 7.43953 3.88671C7.11392 3.72626 6.71988 3.64604 6.25742 3.64604H4.87003V15H0.934366ZM14.0155 15V0.503171H20.2729C21.3488 0.503171 22.2903 0.69901 23.0972 1.09069C23.9042 1.48237 24.5318 2.04629 24.9801 2.78246C25.4284 3.51862 25.6526 4.40108 25.6526 5.42983C25.6526 6.46801 25.4214 7.34339 24.9589 8.05596C24.5012 8.76853 23.857 9.3065 23.0265 9.66987C22.2006 10.0332 21.2356 10.2149 20.1313 10.2149H16.3939V7.15699H19.3385C19.801 7.15699 20.195 7.10036 20.5207 6.9871C20.851 6.86913 21.1035 6.68273 21.2781 6.4279C21.4574 6.17307 21.547 5.84038 21.547 5.42983C21.547 5.01455 21.4574 4.67714 21.2781 4.4176C21.1035 4.15333 20.851 3.95985 20.5207 3.83716C20.195 3.70974 19.801 3.64604 19.3385 3.64604H17.9512V15H14.0155ZM22.5097 8.34618L26.1339 15H21.8585L18.3192 8.34618H22.5097ZM31.096 15H26.8489L31.6339 0.503171H37.0136L41.7987 15H37.5516L34.3804 4.49546H34.2672L31.096 15ZM30.3032 9.28055H38.2878V12.2252H30.3032V9.28055ZM49.1692 0.503171H53.0483V10.4414C53.0436 11.3852 52.8052 12.2158 52.3333 12.9331C51.8662 13.6456 51.2197 14.2025 50.3938 14.6036C49.5727 15 48.6266 15.1982 47.5553 15.1982C46.6257 15.1982 45.7763 15.0378 45.0071 14.7169C44.2379 14.3912 43.6244 13.8816 43.1666 13.1879C42.7089 12.4895 42.4824 11.5834 42.4871 10.4697H46.4228C46.4369 10.8331 46.4983 11.1398 46.6068 11.3899C46.7201 11.6401 46.8758 11.8288 47.074 11.9562C47.2769 12.0789 47.5223 12.1403 47.8102 12.1403C48.1027 12.1403 48.3481 12.0766 48.5463 11.9492C48.7492 11.8217 48.9026 11.633 49.0064 11.3829C49.1103 11.128 49.1645 10.8142 49.1692 10.4414V0.503171ZM58.6792 15H54.4321L59.2172 0.503171H64.5969L69.382 15H65.1349L61.9637 4.49546H61.8504L58.6792 15ZM57.8864 9.28055H65.871V12.2252H57.8864V9.28055ZM70.7782 15V0.503171H77.0356C78.1116 0.503171 79.053 0.715527 79.86 1.14024C80.6669 1.56495 81.2946 2.16191 81.7429 2.93111C82.1912 3.70031 82.4153 4.59928 82.4153 5.62803C82.4153 6.66621 82.1841 7.56518 81.7216 8.32495C81.2639 9.08471 80.6197 9.66987 79.7892 10.0804C78.9634 10.491 77.9983 10.6963 76.8941 10.6963H73.1566V7.63833H76.1013C76.5637 7.63833 76.9578 7.55811 77.2834 7.39766C77.6137 7.23249 77.8662 6.9989 78.0408 6.69688C78.2201 6.39487 78.3098 6.03858 78.3098 5.62803C78.3098 5.21275 78.2201 4.85883 78.0408 4.56625C77.8662 4.26895 77.6137 4.04244 77.2834 3.88671C76.9578 3.72626 76.5637 3.64604 76.1013 3.64604H74.7139V15H70.7782ZM85.8148 15H81.5677L86.3528 0.503171H91.7324L96.5175 15H92.2704L89.0992 4.49546H88.986L85.8148 15ZM85.022 9.28055H93.0066V12.2252H85.022V9.28055ZM95.6876 3.67435V0.503171H108.287V3.67435H103.927V15H100.048V3.67435H95.6876ZM113.704 0.503171V15H109.769V0.503171H113.704ZM6.51225 39H0.934366V24.5032H6.45562C7.94683 24.5032 9.23512 24.7934 10.3205 25.3738C11.4106 25.9495 12.2506 26.7801 12.8405 27.8655C13.4351 28.9461 13.7323 30.2415 13.7323 31.7516C13.7323 33.2617 13.4374 34.5594 12.8475 35.6448C12.2577 36.7254 11.4224 37.556 10.3417 38.1364C9.26108 38.7121 7.98458 39 6.51225 39ZM4.87003 35.6589H6.37068C7.08797 35.6589 7.69908 35.5433 8.20402 35.3121C8.71367 35.0809 9.10063 34.6821 9.36489 34.1158C9.63388 33.5495 9.76837 32.7615 9.76837 31.7516C9.76837 30.7417 9.63152 29.9536 9.35782 29.3874C9.08883 28.8211 8.69243 28.4223 8.16862 28.1911C7.64953 27.9599 7.01246 27.8442 6.25742 27.8442H4.87003V35.6589ZM15.5533 39V24.5032H19.489V30.166H24.6988V24.5032H28.6344V39H24.6988V33.3372H19.489V39H15.5533ZM30.5032 39V24.5032H36.7606C37.8365 24.5032 38.778 24.699 39.5849 25.0907C40.3919 25.4824 41.0195 26.0463 41.4678 26.7825C41.9161 27.5186 42.1403 28.4011 42.1403 29.4298C42.1403 30.468 41.909 31.3434 41.4466 32.056C40.9888 32.7685 40.3447 33.3065 39.5141 33.6699C38.6883 34.0332 37.7233 34.2149 36.619 34.2149H32.8815V31.157H35.8262C36.2887 31.157 36.6827 31.1004 37.0083 30.9871C37.3387 30.8691 37.5911 30.6827 37.7657 30.4279C37.945 30.1731 38.0347 29.8404 38.0347 29.4298C38.0347 29.0146 37.945 28.6771 37.7657 28.4176C37.5911 28.1533 37.3387 27.9599 37.0083 27.8372C36.6827 27.7097 36.2887 27.646 35.8262 27.646H34.4388V39H30.5032ZM38.9974 32.3462L42.6216 39H38.3462L34.8069 32.3462H38.9974ZM52.397 24.5032H56.3327V33.7902C56.3327 34.8945 56.0684 35.8501 55.5399 36.657C55.0161 37.4592 54.2847 38.0798 53.3456 38.5187C52.4065 38.9528 51.3164 39.1699 50.0753 39.1699C48.8247 39.1699 47.7299 38.9528 46.7909 38.5187C45.8518 38.0798 45.1203 37.4592 44.5965 36.657C44.0774 35.8501 43.8179 34.8945 43.8179 33.7902V24.5032H47.7535V33.4504C47.7535 33.8987 47.8526 34.2999 48.0508 34.6538C48.249 35.003 48.5227 35.2767 48.8719 35.4749C49.2259 35.6731 49.627 35.7722 50.0753 35.7722C50.5283 35.7722 50.9294 35.6731 51.2786 35.4749C51.6278 35.2767 51.9016 35.003 52.0997 34.6538C52.2979 34.2999 52.397 33.8987 52.397 33.4504V24.5032ZM62.1672 24.5032L65.1402 34.7246H65.2534L68.2264 24.5032H72.6717L67.8866 39H62.507L57.7219 24.5032H62.1672Z" fill="#555555"/>
</svg>
